<?xml version="1.0" encoding="UTF-8" standalone="no"?>
<!-- Created with Inkscape (http://www.inkscape.org/) -->

<svg
   width="404.68143"
   height="412.21539"
   viewBox="0 0 107.07196 109.06532"
   version="1.1"
   id="svg1"
   xml:space="preserve"
   xmlns:xlink="http://www.w3.org/1999/xlink"
   xmlns="http://www.w3.org/2000/svg"
   xmlns:svg="http://www.w3.org/2000/svg"><defs
     id="defs1"><filter
       style="color-interpolation-filters:sRGB"
       id="filter45"
       x="-0.0019324897"
       y="-0.0019324897"
       width="1.003865"
       height="1.003865"><feGaussianBlur
         stdDeviation="0.0008975819"
         id="feGaussianBlur45" /></filter><filter
       style="color-interpolation-filters:sRGB"
       id="filter46"
       x="-0.0031726467"
       y="-0.0031726467"
       width="1.0063453"
       height="1.0063453"><feGaussianBlur
         stdDeviation="0.0014735967"
         id="feGaussianBlur46" /></filter><filter
       style="color-interpolation-filters:sRGB"
       id="filter48"
       x="-0.014615712"
       y="-0.014615712"
       width="1.0292314"
       height="1.0292314"><feGaussianBlur
         stdDeviation="0.006788548"
         id="feGaussianBlur48" /></filter><filter
       style="color-interpolation-filters:sRGB"
       id="filter49"
       x="-0.010532491"
       y="-0.010532491"
       width="1.021065"
       height="1.021065"><feGaussianBlur
         stdDeviation="0.0048920178"
         id="feGaussianBlur49" /></filter><filter
       style="color-interpolation-filters:sRGB"
       id="filter50"
       x="-0.0068575348"
       y="-0.0068575348"
       width="1.0137151"
       height="1.0137151"><feGaussianBlur
         stdDeviation="0.0031851136"
         id="feGaussianBlur50" /></filter><filter
       style="color-interpolation-filters:sRGB"
       id="filter53"
       x="-0.0090292178"
       y="-0.0090292178"
       width="1.0180584"
       height="1.0180584"><feGaussianBlur
         stdDeviation="0.0041937933"
         id="feGaussianBlur53" /></filter><filter
       style="color-interpolation-filters:sRGB"
       id="filter55"
       x="-0.0046861325"
       y="-0.0046861325"
       width="1.0093723"
       height="1.0093723"><feGaussianBlur
         stdDeviation="0.0021765643"
         id="feGaussianBlur55" /></filter><filter
       style="color-interpolation-filters:sRGB"
       id="filter56"
       x="-0.0003604125"
       y="-0.0003604125"
       width="1.0007208"
       height="1.0007208"><feGaussianBlur
         stdDeviation="0.0001674005"
         id="feGaussianBlur56" /></filter></defs><g
     id="layer1"
     transform="translate(-111.80993,-27.95966)"><g
       id="g9"
       transform="translate(-0.04537397)"><path
         id="rect6"
         style="fill:#49ccff;fill-opacity:1;stroke-width:3.04562;stroke-linecap:round"
         d="m 95.791847,115.27321 h 4.648463 v 6.53278 c 0,0.95465 -0.13881,2.49091 -0.37804,3.41493 -0.401039,1.54892 -1.093938,3.60527 -1.946192,3.60527 -0.852469,0 -1.545503,-2.05739 -1.946491,-3.60645 -0.239024,-0.92337 -0.37774,-2.4591 -0.37774,-3.41375 z"
         transform="rotate(30,107.28973,223.68604)" /><path
         id="path7"
         style="fill:#49ccff;stroke-width:3.04562;stroke-linecap:round"
         d="m 95.791847,115.27321 h 4.648463 v 6.53278 c 0,0.95465 -0.13881,2.49091 -0.37804,3.41493 -0.401039,1.54892 -1.093938,3.60527 -1.946192,3.60527 -0.852469,0 -1.545503,-2.05739 -1.946491,-3.60645 -0.239024,-0.92337 -0.37774,-2.4591 -0.37774,-3.41375 z"
         transform="matrix(-0.86602541,0.50000001,0.50000001,0.86602541,213.2764,-23.67661)" /><path
         style="fill:#00b9fa;fill-opacity:1;stroke:none;stroke-width:0.499999;stroke-linecap:round;stroke-dasharray:none"
         d="m 151.40345,124.28652 c 1.53362,1.02759 3.73525,2.11288 4.06981,2.24638 l -0.77128,1.33387 c -0.99264,0.0788 -3.85047,-1.65819 -3.94355,-2.4665 z"
         id="path157" /><path
         style="fill:#00b9fa;fill-opacity:1;stroke:none;stroke-width:0.499999;stroke-linecap:round;stroke-dasharray:none"
         d="m 187.99896,124.12669 c -1.53362,1.02759 -3.73525,2.11288 -4.06981,2.24638 l 0.77128,1.33387 c 0.99264,0.0788 3.85047,-1.65819 3.94355,-2.4665 z"
         id="path158" /></g><g
       id="g10"><rect
         style="fill:#666666;fill-opacity:1;stroke-width:1.05416;stroke-linecap:round"
         id="rect9"
         width="2.1166666"
         height="3.7135446"
         x="168.64304"
         y="58.302837" /><rect
         style="fill:#666666;fill-opacity:1;stroke-width:1.70434;stroke-linecap:round"
         id="rect10"
         width="7.9375"
         height="2.1166666"
         x="165.73262"
         y="56.186172" /></g><g
       id="g6"><rect
         style="fill:#666666;fill-opacity:1;stroke-width:3.77648;stroke-linecap:round"
         id="rect1"
         width="2.1046414"
         height="22.632347"
         x="87.10923"
         y="96.215286"
         transform="matrix(0.95873824,-0.28429035,0.54237104,0.84013905,0,-2.1166667)"
         ry="0.8044771" /><path
         id="rect4"
         style="fill:#49ccff;fill-opacity:1;stroke-width:3.04562;stroke-linecap:round"
         d="m 108.53058,65.090858 h 7.91539 a 10.409855,10.409855 45 0 1 10.40985,10.409855 v 2.08155 H 98.120728 v -2.08155 A 10.409855,10.409855 135 0 1 108.53058,65.090858 Z"
         transform="matrix(0.80912001,-0.55111389,0.53439744,0.83443003,13.737413,64.447615)" /><rect
         style="fill:#666666;fill-opacity:1;stroke-width:3.77648;stroke-linecap:round"
         id="rect3"
         width="2.1046414"
         height="22.632347"
         x="-210.02126"
         y="-4.3291678"
         transform="matrix(-0.95873824,-0.28429035,-0.54237104,0.84013905,0,-2.1166667)"
         ry="0.8044771" /><path
         id="path4"
         style="fill:#49ccff;fill-opacity:1;stroke-width:3.04562;stroke-linecap:round"
         d="m 108.53058,65.090858 h 7.91539 a 10.409855,10.409855 45 0 1 10.40985,10.409855 v 2.08155 H 98.120728 v -2.08155 A 10.409855,10.409855 135 0 1 108.53058,65.090858 Z"
         transform="matrix(-0.80912001,-0.55111389,-0.53439744,0.83443003,326.16454,65.170828)" /></g><circle
       style="fill:#49ccff;fill-opacity:1;stroke-width:3.04562;stroke-linecap:round"
       id="path1"
       cx="169.70139"
       cy="95.82457"
       r="33.866665" /><circle
       style="fill:#e0ebff;fill-opacity:1;stroke-width:2.70165;stroke-linecap:round"
       id="circle10"
       cx="-169.70139"
       cy="95.82457"
       r="30.041706"
       transform="scale(-1,1)" /><g
       id="g57"
       transform="translate(-0.06095757,-0.00781732)"><path
         style="font-size:3.52778px;line-height:100;-inkscape-font-specification:'sans-serif, Normal';letter-spacing:3.96875px;fill:none;stroke:#000000;stroke-width:0.264583;stroke-linecap:round;stroke-dasharray:none"
         d="m 183.80595,73.574272 h -0.30339 V 71.81391 q 0,-0.102306 0,-0.172861 0.004,-0.07056 0.007,-0.130528 0.004,-0.0635 0.007,-0.130528 -0.0564,0.05644 -0.1023,0.09525 -0.0459,0.03881 -0.11642,0.09878 l -0.26811,0.218722 -0.16228,-0.208139 0.68086,-0.529167 h 0.25753 z"
         id="text34"
         aria-label="1" /><circle
         style="fill:#000000;fill-opacity:1;stroke:none;stroke-width:0.499999;stroke-linecap:round;stroke-dasharray:none"
         id="path45"
         cx="129.93466"
         cy="157.14558"
         transform="matrix(0.30089239,0.9536581,0.9536581,-0.30089239,0,0)"
         r="0.55736303" /><path
         style="font-size:3.52778px;line-height:100;-inkscape-font-specification:'sans-serif, Normal';letter-spacing:3.96875px;fill:none;stroke:#000000;stroke-width:0.264583;stroke-linecap:round;stroke-dasharray:none"
         d="m 194.10646,83.52906 h -1.66511 v -0.257528 l 0.6597,-0.66675 q 0.1905,-0.1905 0.32102,-0.338667 0.13053,-0.148167 0.19756,-0.289278 0.067,-0.144639 0.067,-0.313972 0,-0.208139 -0.12347,-0.313973 -0.12348,-0.109361 -0.32103,-0.109361 -0.18345,0 -0.32456,0.0635 -0.13758,0.0635 -0.28222,0.176389 l -0.16581,-0.208139 q 0.0988,-0.08467 0.2152,-0.151694 0.11994,-0.06703 0.25753,-0.105834 0.14111,-0.0388 0.29986,-0.0388 0.23636,0 0.40569,0.08114 0.16934,0.08114 0.26106,0.232833 0.0953,0.148167 0.0953,0.356306 0,0.197555 -0.0811,0.370417 -0.0811,0.172861 -0.22578,0.342194 -0.14464,0.165806 -0.33867,0.356306 l -0.52563,0.518584 v 0.01411 h 1.27352 z"
         id="text35"
         aria-label="2" /><use
         x="0"
         y="0"
         xlink:href="#path45"
         transform="matrix(-0.28202548,-0.9761957,0.94870356,-0.27143706,176.579,294.06129)"
         opacity="0.993042"
         id="use46"
         style="filter:url(#filter46)" /><path
         style="font-size:3.52778px;line-height:100;-inkscape-font-specification:'sans-serif, Normal';letter-spacing:3.96875px;fill:none;stroke:#000000;stroke-width:0.264583;stroke-linecap:round;stroke-dasharray:none"
         d="m 197.66261,95.156143 q 0,0.169333 -0.0635,0.292805 -0.0635,0.123473 -0.18344,0.201084 -0.11642,0.07761 -0.27517,0.109361 v 0.01411 q 0.30339,0.03528 0.45156,0.1905 0.14816,0.155223 0.14816,0.405695 0,0.218722 -0.1023,0.391584 -0.10231,0.169333 -0.3175,0.264583 -0.21167,0.09525 -0.54681,0.09525 -0.19755,0 -0.36689,-0.03175 -0.16933,-0.02822 -0.32455,-0.105833 v -0.289278 q 0.15875,0.07761 0.34219,0.123472 0.18345,0.04233 0.35278,0.04233 0.33867,0 0.48683,-0.130527 0.1517,-0.134056 0.1517,-0.36689 0,-0.15875 -0.0847,-0.254 -0.0811,-0.09878 -0.23989,-0.144639 -0.15875,-0.04586 -0.381,-0.04586 h -0.24342 v -0.26458 h 0.24695 q 0.20814,0 0.34572,-0.05997 0.14111,-0.05997 0.21167,-0.165805 0.0741,-0.109361 0.0741,-0.250473 0,-0.183444 -0.12347,-0.282222 -0.12347,-0.102306 -0.33514,-0.102306 -0.13406,0 -0.24342,0.02822 -0.10936,0.02469 -0.20461,0.07408 -0.0917,0.04586 -0.18697,0.109361 l -0.15522,-0.211667 q 0.13405,-0.105833 0.33161,-0.183444 0.20108,-0.07761 0.45508,-0.07761 0.39511,0 0.58561,0.176389 0.19403,0.176389 0.19403,0.448028 z"
         id="text36"
         aria-label="3" /><use
         x="0"
         y="0"
         xlink:href="#path45"
         transform="matrix(-0.23477452,-0.98164223,0.95586569,-0.2261971,167.10178,305.67703)"
         opacity="0.997081"
         id="use55"
         style="filter:url(#filter55)" /><path
         style="font-size:3.52778px;line-height:100;-inkscape-font-specification:'sans-serif, Normal';letter-spacing:3.96875px;fill:none;stroke:#000000;stroke-width:0.264583;stroke-linecap:round;stroke-dasharray:none"
         d="m 194.21055,110.09585 h -0.36689 v 0.5715 h -0.29986 v -0.5715 h -1.2065 v -0.26458 l 1.18533,-1.69687 h 0.32103 v 1.68276 h 0.36689 z m -0.66675,-1.07244 q 0,-0.0917 0,-0.16581 0.004,-0.0776 0.007,-0.14464 0.004,-0.067 0.004,-0.127 0.004,-0.0635 0.007,-0.11994 h -0.0141 q -0.0282,0.067 -0.0706,0.14463 -0.0423,0.0776 -0.0811,0.13053 l -0.75494,1.07598 h 0.90311 z"
         id="text37"
         aria-label="4" /><use
         x="0"
         y="0"
         xlink:href="#path45"
         transform="matrix(-0.2559924,-0.98138736,0.9430013,-0.24236798,165.07012,319.03854)"
         id="use47" /><path
         style="font-size:3.52778px;line-height:100;-inkscape-font-specification:'sans-serif, Normal';letter-spacing:3.96875px;fill:none;stroke:#000000;stroke-width:0.264583;stroke-linecap:round;stroke-dasharray:none"
         d="m 183.28737,119.03464 q 0.25753,0 0.44803,0.0882 0.1905,0.0882 0.2928,0.254 0.10584,0.16228 0.10584,0.39864 0,0.26105 -0.11289,0.45155 -0.11289,0.18698 -0.32456,0.28928 -0.20814,0.0988 -0.50447,0.0988 -0.19403,0 -0.36689,-0.0353 -0.16933,-0.0353 -0.28575,-0.1023 v -0.29281 q 0.127,0.0776 0.30692,0.12347 0.18344,0.0423 0.34925,0.0423 0.18697,0 0.32455,-0.0564 0.14111,-0.06 0.21873,-0.17992 0.0776,-0.12347 0.0776,-0.30691 0,-0.24695 -0.1517,-0.37748 -0.15169,-0.13405 -0.47978,-0.13405 -0.0988,0 -0.22577,0.0176 -0.127,0.0176 -0.20462,0.0353 l -0.15522,-0.0988 0.0953,-1.18886 h 1.26295 v 0.28222 h -0.99836 l -0.06,0.73025 q 0.06,-0.0106 0.16228,-0.0247 0.10231,-0.0141 0.22578,-0.0141 z"
         id="text38"
         aria-label="5" /><use
         x="0"
         y="0"
         xlink:href="#path45"
         transform="matrix(-0.22965744,-0.95789338,0.98311058,-0.23813048,144.84986,321.30106)"
         opacity="0.987177"
         id="use45"
         style="filter:url(#filter45)" /><path
         style="font-size:3.52778px;line-height:100;-inkscape-font-specification:'sans-serif, Normal';letter-spacing:3.96875px;fill:none;stroke:#000000;stroke-width:0.264583;stroke-linecap:round;stroke-dasharray:none"
         d="m 168.93332,123.15873 q 0,-0.21872 0.0282,-0.43039 0.0317,-0.21167 0.10583,-0.39864 0.0741,-0.1905 0.20461,-0.33514 0.13053,-0.14816 0.32809,-0.2293 0.20108,-0.0847 0.48683,-0.0847 0.0741,0 0.16228,0.007 0.0917,0.007 0.14816,0.0247 v 0.26458 q -0.0635,-0.0212 -0.14463,-0.0318 -0.0776,-0.0106 -0.15875,-0.0106 -0.24342,0 -0.4057,0.0811 -0.16228,0.0811 -0.25753,0.22225 -0.0917,0.14111 -0.13405,0.32456 -0.0423,0.18344 -0.0529,0.39158 h 0.0212 q 0.0529,-0.0847 0.13405,-0.1517 0.0811,-0.067 0.19403,-0.10583 0.11642,-0.0388 0.26811,-0.0388 0.21872,0 0.381,0.0917 0.16581,0.0882 0.25753,0.26105 0.0917,0.16934 0.0917,0.41275 0,0.26106 -0.0988,0.45156 -0.0988,0.1905 -0.2787,0.29281 -0.17639,0.1023 -0.42333,0.1023 -0.17992,0 -0.33514,-0.067 -0.15522,-0.067 -0.27517,-0.20461 -0.11642,-0.13758 -0.18344,-0.34572 -0.0635,-0.21167 -0.0635,-0.49389 z m 0.85372,0.8502 q 0.22225,0 0.35983,-0.14112 0.13759,-0.14464 0.13759,-0.4445 0,-0.23989 -0.12348,-0.381 -0.11994,-0.14111 -0.36336,-0.14111 -0.1658,0 -0.28928,0.0706 -0.12347,0.067 -0.19402,0.17286 -0.067,0.10583 -0.067,0.21872 0,0.11642 0.0318,0.22931 0.0353,0.11289 0.1023,0.20814 0.0706,0.0952 0.16934,0.15169 0.1023,0.0565 0.23636,0.0565 z"
         id="text39"
         aria-label="6" /><use
         x="0"
         y="0"
         xlink:href="#path45"
         transform="matrix(-0.24812019,-0.97516273,0.98046435,-0.24997798,134.48807,325.47212)"
         id="use49"
         style="filter:url(#filter49)" /><path
         style="font-size:3.52778px;line-height:100;-inkscape-font-specification:'sans-serif, Normal';letter-spacing:3.96875px;fill:none;stroke:#000000;stroke-width:0.264583;stroke-linecap:round;stroke-dasharray:none"
         d="m 155.66757,120.59745 1.03364,-2.23661 h -1.3582 v -0.28222 h 1.68981 v 0.23988 l -1.02306,2.27895 z"
         id="text40"
         aria-label="7" /><use
         x="0"
         y="0"
         xlink:href="#path45"
         transform="matrix(-0.2622239,-0.97963667,0.94673244,-0.250299,127.56746,319.31546)"
         id="use52" /><path
         style="font-size:3.52778px;line-height:100;-inkscape-font-specification:'sans-serif, Normal';letter-spacing:3.96875px;fill:none;stroke:#000000;stroke-width:0.264583;stroke-linecap:round;stroke-dasharray:none"
         d="m 146.24899,108.10619 q 0.22225,0 0.39159,0.0705 0.16933,0.067 0.26458,0.20109 0.0988,0.13405 0.0988,0.33161 0,0.15169 -0.067,0.26458 -0.0635,0.11289 -0.17286,0.20109 -0.10936,0.0847 -0.23989,0.15169 0.15522,0.0741 0.28222,0.16933 0.127,0.0917 0.20109,0.2152 0.0776,0.12347 0.0776,0.29633 0,0.21167 -0.10231,0.36689 -0.1023,0.1517 -0.28928,0.23636 -0.18344,0.0847 -0.43391,0.0847 -0.27164,0 -0.46214,-0.0811 -0.18697,-0.0811 -0.28575,-0.22931 -0.0952,-0.15169 -0.0952,-0.36688 0,-0.17287 0.0705,-0.29987 0.0741,-0.127 0.19403,-0.21872 0.11995,-0.0917 0.25753,-0.15522 -0.12347,-0.0706 -0.22578,-0.15875 -0.0988,-0.0917 -0.15875,-0.20814 -0.0564,-0.11642 -0.0564,-0.27164 0,-0.19403 0.0988,-0.32455 0.0988,-0.13406 0.26812,-0.20462 0.16933,-0.0705 0.38452,-0.0705 z m -0.52916,1.91558 q 0,0.18345 0.13052,0.30692 0.13053,0.11994 0.40217,0.11994 0.25753,0 0.39158,-0.11994 0.13759,-0.12347 0.13759,-0.3175 0,-0.12347 -0.067,-0.21519 -0.0635,-0.0953 -0.18344,-0.16934 -0.11642,-0.0741 -0.2787,-0.13405 l -0.0564,-0.0212 q -0.15523,0.067 -0.26106,0.14464 -0.10583,0.0776 -0.16228,0.17639 -0.0529,0.0988 -0.0529,0.2293 z m 0.52564,-1.66511 q -0.19403,0 -0.32103,0.0952 -0.12347,0.0917 -0.12347,0.26811 0,0.13053 0.06,0.21872 0.0635,0.0882 0.16933,0.1517 0.10583,0.06 0.23283,0.11642 0.12348,-0.0529 0.21873,-0.11642 0.0988,-0.0635 0.15522,-0.1517 0.06,-0.0917 0.06,-0.21872 0,-0.17639 -0.12347,-0.26811 -0.12347,-0.0952 -0.32808,-0.0952 z"
         id="text41"
         aria-label="8" /><use
         x="0"
         y="0"
         xlink:href="#path45"
         transform="matrix(-0.285816,-0.96824347,0.94053704,-0.27496101,125.47351,306.88195)"
         opacity="0.990291"
         id="use53"
         style="filter:url(#filter53)" /><path
         style="font-size:3.52778px;line-height:100;-inkscape-font-specification:'sans-serif, Normal';letter-spacing:3.96875px;fill:none;stroke:#000000;stroke-width:0.264583;stroke-linecap:round;stroke-dasharray:none"
         d="m 143.44252,95.643007 q 0,0.215194 -0.0317,0.430389 -0.0282,0.211667 -0.1023,0.402167 -0.0741,0.186972 -0.20461,0.335139 -0.13053,0.144639 -0.33161,0.229306 -0.20109,0.08114 -0.48684,0.08114 -0.0706,0 -0.1658,-0.01058 -0.0917,-0.0071 -0.1517,-0.02469 v -0.264584 q 0.0635,0.02117 0.14817,0.03528 0.0847,0.01058 0.16228,0.01058 0.24694,0 0.40569,-0.08114 0.16228,-0.08114 0.25753,-0.218723 0.0953,-0.141111 0.13758,-0.324556 0.0423,-0.186972 0.0494,-0.391583 h -0.0212 q -0.0529,0.08114 -0.13405,0.148167 -0.0811,0.06703 -0.19756,0.105833 -0.11289,0.03881 -0.26811,0.03881 -0.21519,0 -0.381,-0.08819 -0.16228,-0.09172 -0.254,-0.261056 -0.0882,-0.169333 -0.0882,-0.41275 0,-0.264583 0.0988,-0.455084 0.10231,-0.1905 0.28223,-0.292805 0.17991,-0.102306 0.42333,-0.102306 0.17992,0 0.33514,0.07056 0.15522,0.06703 0.27164,0.204611 0.11642,0.137583 0.17992,0.345722 0.067,0.208139 0.067,0.490362 z m -0.85372,-0.850195 q -0.21872,0 -0.35983,0.144639 -0.13759,0.144639 -0.13759,0.440972 0,0.243417 0.11642,0.384528 0.11995,0.137584 0.36689,0.137584 0.16933,0 0.29281,-0.06703 0.12347,-0.07056 0.1905,-0.176389 0.0705,-0.105833 0.0705,-0.218722 0,-0.112889 -0.0353,-0.225778 -0.0317,-0.116417 -0.0988,-0.211667 -0.067,-0.09525 -0.16934,-0.151695 -0.1023,-0.05644 -0.23636,-0.05644 z"
         id="text42"
         aria-label="9" /><use
         x="0"
         y="0"
         xlink:href="#path45"
         transform="matrix(-0.25063177,-0.95678014,0.98283177,-0.25999636,115.58409,289.51585)"
         opacity="0.999673"
         id="use50"
         style="filter:url(#filter50)" /><path
         style="font-size:3.52778px;line-height:100;-inkscape-font-specification:'sans-serif, Normal';letter-spacing:0px;fill:none;stroke:#000000;stroke-width:0.264583;stroke-linecap:round;stroke-dasharray:none"
         d="m 145.44096,83.523323 h -0.30339 v -1.760362 q 0,-0.102306 0,-0.172861 0.004,-0.07056 0.007,-0.130528 0.004,-0.0635 0.007,-0.130528 -0.0564,0.05644 -0.1023,0.09525 -0.0459,0.03881 -0.11642,0.09878 l -0.26811,0.218722 -0.16228,-0.208139 0.68086,-0.529167 h 0.25753 z m 2.61056,-1.262945 q 0,0.306917 -0.0459,0.546806 -0.0459,0.239889 -0.14817,0.409222 -0.0988,0.165806 -0.26105,0.254 -0.15875,0.08819 -0.38453,0.08819 -0.28222,0 -0.4692,-0.155222 -0.18344,-0.155223 -0.27516,-0.444501 -0.0882,-0.292805 -0.0882,-0.6985 0,-0.409223 0.0811,-0.698501 0.0847,-0.289278 0.26811,-0.440972 0.18345,-0.155222 0.48331,-0.155222 0.28222,0 0.46919,0.155222 0.18697,0.151694 0.2787,0.440972 0.0917,0.289278 0.0917,0.698501 z m -1.36172,0 q 0,0.345722 0.0494,0.575028 0.0529,0.229306 0.1658,0.345722 0.11642,0.112889 0.30692,0.112889 0.1905,0 0.30339,-0.112889 0.11641,-0.112889 0.16933,-0.342194 0.0529,-0.232834 0.0529,-0.578556 0,-0.345723 -0.0529,-0.571501 -0.0529,-0.229305 -0.16933,-0.342194 -0.11289,-0.116417 -0.30339,-0.116417 -0.1905,0 -0.30692,0.116417 -0.11289,0.112889 -0.1658,0.342194 -0.0494,0.225778 -0.0494,0.571501 z"
         id="text43"
         aria-label="10" /><use
         x="0"
         y="0"
         xlink:href="#path45"
         transform="matrix(-0.24011499,-0.96179506,0.99388164,-0.25124218,119.7769,277.62215)"
         opacity="0.99064"
         id="use56"
         style="filter:url(#filter56)" /><path
         style="font-size:3.52778px;line-height:100;-inkscape-font-specification:'sans-serif, Normal';letter-spacing:0px;fill:none;stroke:#000000;stroke-width:0.264583;stroke-linecap:round;stroke-dasharray:none"
         d="m 155.64816,73.574257 h -0.30339 v -1.760362 q 0,-0.102306 0,-0.172862 0.004,-0.07055 0.007,-0.130527 0.004,-0.0635 0.007,-0.130528 -0.0564,0.05644 -0.1023,0.09525 -0.0459,0.0388 -0.11642,0.09878 l -0.26811,0.218722 -0.16228,-0.208139 0.68086,-0.529167 h 0.25753 z m 2.01789,0 h -0.30339 v -1.760362 q 0,-0.102306 0,-0.172862 0.004,-0.07055 0.007,-0.130527 0.004,-0.0635 0.007,-0.130528 -0.0564,0.05644 -0.1023,0.09525 -0.0459,0.0388 -0.11642,0.09878 l -0.26811,0.218722 -0.16228,-0.208139 0.68086,-0.529167 h 0.25753 z"
         id="text44"
         aria-label="11" /><use
         x="0"
         y="0"
         xlink:href="#path45"
         transform="matrix(-0.24511007,-0.95168744,0.95810387,-0.24738007,135.63274,268.38962)"
         opacity="0.998828"
         id="use48"
         style="filter:url(#filter48)" /><path
         style="font-size:3.52778px;line-height:100;-inkscape-font-specification:'sans-serif, Normal';letter-spacing:0px;fill:none;stroke:#000000;stroke-width:0.264583;stroke-linecap:round;stroke-dasharray:none"
         d="m 168.93594,69.948906 h -0.30339 v -1.760362 q 0,-0.102306 0,-0.172862 0.004,-0.07055 0.007,-0.130527 0.004,-0.0635 0.007,-0.130528 -0.0564,0.05644 -0.1023,0.09525 -0.0459,0.0388 -0.11642,0.09878 l -0.26811,0.218722 -0.16228,-0.208139 0.68086,-0.529167 h 0.25753 z m 2.59998,0 h -1.66512 v -0.257528 l 0.6597,-0.66675 q 0.1905,-0.190501 0.32103,-0.338667 0.13052,-0.148167 0.19755,-0.289278 0.067,-0.144639 0.067,-0.313973 0,-0.208139 -0.12347,-0.313972 -0.12347,-0.109361 -0.32103,-0.109361 -0.18344,0 -0.32456,0.0635 -0.13758,0.0635 -0.28222,0.176389 l -0.1658,-0.208139 q 0.0988,-0.08467 0.21519,-0.151695 0.11995,-0.06703 0.25753,-0.105833 0.14111,-0.03881 0.29986,-0.03881 0.23636,0 0.40569,0.08114 0.16934,0.08114 0.26106,0.232834 0.0952,0.148166 0.0952,0.356305 0,0.197556 -0.0811,0.370417 -0.0811,0.172862 -0.22578,0.342195 -0.14464,0.165806 -0.33866,0.356306 l -0.52564,0.518583 v 0.01411 h 1.27353 z"
         id="text45"
         aria-label="12" /><use
         x="0"
         y="0"
         xlink:href="#path45"
         transform="matrix(-0.2456773,-0.98400065,0.94727069,-0.2330696,150.62334,273.3989)"
         id="use51" /></g><g
       id="g155"><g
         id="g154"><path
           style="fill:#666666;fill-opacity:1;stroke:none;stroke-width:0.499999;stroke-linecap:round;stroke-dasharray:none"
           d="m 169.52504,96.0515 2.58505,-4.529619 6.58703,-6.515058 -4.89086,7.419159 z"
           id="path159" /><path
           style="fill:#000000;fill-opacity:1;stroke:none;stroke-width:0.499999;stroke-linecap:round;stroke-dasharray:none"
           d="m 169.52504,96.0515 2.73005,-5.853183 6.95652,-8.418773 -5.16521,9.587055 z"
           id="path58" /><path
           style="fill:#666666;fill-opacity:1;stroke:none;stroke-width:0.499999;stroke-linecap:round;stroke-dasharray:none"
           d="m 168.4976,96.350321 -4.92316,3.332646 -9.23871,2.944003 8.55767,-5.035233 z"
           id="path59-6" /><path
           style="fill:#000000;fill-opacity:1;stroke:none;stroke-width:0.499999;stroke-linecap:round;stroke-dasharray:none"
           d="m 169.52285,96.05266 -5.62449,3.174597 -10.55483,2.804403 9.77677,-4.79646 z"
           id="path59" /></g><circle
         style="fill:#000000;fill-opacity:1;stroke:none;stroke-width:0.499999;stroke-linecap:round;stroke-dasharray:none"
         id="path57"
         cx="169.70139"
         cy="95.82457"
         r="1.7898641" /></g></g><g
     id="layer4"
     style="opacity:0.5;mix-blend-mode:soft-light"
     transform="translate(-111.80993,-27.95966)"><path
       style="fill:#ffffff;fill-opacity:1;stroke:none;stroke-width:0.499999;stroke-linecap:round;stroke-dasharray:none"
       d="m 142.31155,108.1656 -3.35876,1.85315 c 1.21,3.71288 5.62883,8.97506 7.05097,10.00032 l 4.12325,-1.4053 c -1.50745,-1.34131 -2.97529,-2.78649 -4.67008,-5.04911 -1.85175,-2.47216 -2.68204,-4.44176 -3.14538,-5.39906 z"
       id="path171" /><path
       style="fill:#ffffff;fill-opacity:1;stroke:none;stroke-width:0.499999;stroke-linecap:round;stroke-dasharray:none"
       d="m 151.68722,119.86607 -4.02269,1.6748 c 1.79591,1.87481 2.66286,2.06137 4.41083,3.20283 l 3.55213,-2.37804 c -0.72734,-0.39864 -2.74531,-1.52446 -3.94027,-2.49959 z"
       id="path172" /><path
       style="fill:#ffffff;fill-opacity:1;stroke:none;stroke-width:0.499999;stroke-linecap:round;stroke-dasharray:none"
       d="m 158.77361,108.90713 -8.6466,9.70664 c 1.56021,1.2523 5.13943,3.77952 7.08606,4.53379 0,0 5.30423,-7.90198 8.41234,-11.48951 4.29914,-4.96229 12.38532,-7.43639 14.07237,-13.781529 1.1457,-4.309066 -4.75659,-8.551322 -3.64649,-12.869698 1.47094,-5.722138 12.45687,-12.608933 12.45687,-12.608933 -3.48453,-2.619241 -6.05081,-3.772394 -6.05081,-3.772394 0,0 -3.20008,-1.441193 -6.09995,-2.096003 0,0 -9.56075,11.623255 -10.55673,18.716467 -0.68278,4.862661 4.89174,9.641977 3.42362,14.327729 -1.39644,4.456951 -10.45068,9.333441 -10.45068,9.333441 z"
       id="path173" /><path
       style="fill:#ffffff;fill-opacity:1;stroke:none;stroke-width:0.499999;stroke-linecap:round;stroke-dasharray:none"
       d="m 135.95886,74.175578 4.42658,-3.015067 c -4.65038,-2.844104 -1.60762,-13.87499 -1.60762,-13.87499 0,0 -3.72373,2.177409 -4.71764,3.791049 -3.34644,7.003099 1.89868,13.099008 1.89868,13.099008 z"
       id="path174" /><path
       style="fill:#ffffff;fill-opacity:1;stroke:none;stroke-width:0.499999;stroke-linecap:round;stroke-dasharray:none"
       d="m 184.32402,61.535704 4.25409,2.897578 c 0.13788,-5.449399 10.40193,-7.884945 10.40193,-7.884945 0,0 -2.53881,-1.983899 -4.47985,-2.521779 -7.73808,0.603447 -10.17617,7.509146 -10.17617,7.509146 z"
       id="path175" /><path
       style="fill:#ffffff;fill-opacity:1;stroke:none;stroke-width:0.499999;stroke-linecap:round;stroke-dasharray:none"
       d="m 193.10324,76.986912 2.94133,-2.445849 c -3.41437,-4.256267 -6.27521,-6.017806 -9.26863,-8.029009 l -3.61904,2.424591 c 1.80324,0.90545 3.12861,1.714365 5.35126,3.461245 2.42849,1.908655 3.89976,3.784262 4.59508,4.589022 z"
       id="path176" /><path
       style="fill:#ffffff;fill-opacity:1;stroke:none;stroke-width:0.499999;stroke-linecap:round;stroke-dasharray:none"
       d="m 180.84539,67.926269 3.85428,-2.466193 c -2.21996,-1.346111 -3.02743,-1.29006 -5.01127,-1.940218 l -3.331,3.009635 c 0.80573,0.196807 3.08136,0.764151 4.48799,1.396776 z"
       id="path177" /></g><g
     id="layer2"
     style="mix-blend-mode:darken"
     transform="translate(-111.80993,-27.95966)"><rect
       style="fill:#333333;fill-opacity:1;stroke:none;stroke-width:0.499999;stroke-linecap:round;stroke-dasharray:none"
       id="rect155"
       width="2.1166666"
       height="0.88149369"
       x="168.64304"
       y="58.302837"
       ry="0"
       rx="0" /><path
       id="rect156"
       style="fill:#333333;stroke-width:0.499999;stroke-linecap:round"
       d="m 81.605767,137.69108 2.03821,-0.004 -0.03242,1.3774 -2.00742,-0.0144 z"
       transform="rotate(-34.152856)" /><path
       id="path156"
       style="fill:#333333;stroke-width:0.499999;stroke-linecap:round"
       d="m 194.40308,68.400946 -1.68446,-1.147567 -0.74645,1.158059 1.66931,1.115054 z" /></g><g
     id="layer5"
     transform="translate(-111.80993,-27.95966)"><path
       style="fill:#b3b3b3;fill-opacity:1;stroke:none;stroke-width:0.499999;stroke-linecap:round;stroke-dasharray:none"
       d="m 162.33696,52.213479 -2.20749,-4.578947 -2.56155,2.107437 -1.56245,-9.392354 2.77179,6.097669 2.23305,-1.837184 z"
       id="path178" /><path
       style="fill:#b3b3b3;fill-opacity:1;stroke:none;stroke-width:0.499999;stroke-linecap:round;stroke-dasharray:none"
       d="m 170.29116,50.653947 -0.0559,-8.58808 -5.43584,1.363282 4.4127,-15.469489 -0.18188,11.315023 4.73876,-1.18846 z"
       id="path179" /><path
       style="fill:#b3b3b3;fill-opacity:1;stroke:none;stroke-width:0.499999;stroke-linecap:round;stroke-dasharray:none"
       d="m 176.95457,53.55954 4.13384,-5.033204 -3.83,-1.842476 10.07709,-6.876552 -5.59539,6.507412 3.33884,1.6062 z"
       id="path180" /><path
       style="fill:#b3b3b3;fill-opacity:1;stroke:none;stroke-width:0.499999;stroke-linecap:round;stroke-dasharray:none"
       d="m 205.20402,85.789444 5.32833,-3.745747 -3.19849,-2.798798 11.54803,-3.934161 -7.13063,4.775865 2.78832,2.439882 z"
       id="path181" /><path
       style="fill:#b3b3b3;fill-opacity:1;stroke:none;stroke-width:0.499999;stroke-linecap:round;stroke-dasharray:none"
       d="m 208.28187,89.166539 3.80426,-0.984614 -1.2124,-2.259515 7.35695,0.229029 -5.04077,1.183879 1.05692,1.969757 z"
       id="path182" /><path
       style="fill:#b3b3b3;fill-opacity:1;stroke:none;stroke-width:0.499999;stroke-linecap:round;stroke-dasharray:none"
       d="m 133.70491,95.696546 -8.17548,-2.630549 -0.40361,5.589635 -13.3159,-9.025713 10.69156,3.70855 0.35184,-4.872831 z"
       id="path183" /><path
       style="fill:#b3b3b3;fill-opacity:1;stroke:none;stroke-width:0.499999;stroke-linecap:round;stroke-dasharray:none"
       d="m 133.4522,87.254407 -4.95392,-2.955059 -1.10744,3.597473 -7.35348,-7.916149 6.43805,4.040192 0.96541,-3.136144 z"
       id="path184" /></g></svg>
