<svg width="64" height="64" version="1.1" viewBox="0 0 16.933 16.933" xmlns="http://www.w3.org/2000/svg">
 <path d="m8.4666 0a8.4666 8.4666 0 0 0-8.4666 8.4666 8.4666 8.4666 0 0 0 8.4666 8.4666 8.4666 8.4666 0 0 0 8.4666-8.4666 8.4666 8.4666 0 0 0-8.4666-8.4666zm-3.592 3.2587c0.25833-0.010472 0.53749 0.15331 0.70227 0.43873l2.4768 4.2901a1.9629 1.9629 0 0 1 0.55448-0.00982l0.5426-2.0247c0.080731-0.30129 0.39233-0.47791 0.69866-0.39584 0.30632 0.082079 0.48794 0.39065 0.40721 0.69194l-0.59014 2.2029a1.9629 1.9629 0 0 1 0.02222 0.017053l3.1889-1.8407c0.30083-0.17368 0.68485-0.067107 0.86143 0.23874 0.17658 0.30585 0.07655 0.69189-0.22427 0.86557l-3.2122 1.8546a1.9629 1.9629 0 0 1-0.9529 2.0216 1.9629 1.9629 0 0 1-2.6809-0.71829 1.9629 1.9629 0 0 1 0.25993-2.3022l-2.4561-4.2539c-0.21972-0.38056-0.1503-0.82903 0.15554-1.0056 0.076462-0.044146 0.16038-0.066788 0.24649-0.070279z" fill="#33a9d6" stroke-linecap="round" stroke-linejoin="round" stroke-width="1.3229"/>
</svg>
